<?xml version="1.0" encoding="UTF-8" ?>
<!DOCTYPE svg PUBLIC "-//W3C//DTD SVG 1.1//EN" "http://www.w3.org/Graphics/SVG/1.1/DTD/svg11.dtd">
<svg width="64pt" height="64pt" viewBox="0 0 64 64" version="1.1" xmlns="http://www.w3.org/2000/svg">
	<path fill="#efefef" transform="rotate(0,32,32)"   d=" M 35 1.5 v 14 h -6 v -14 a 3,1.5 0,1,1 6,0" />
	<path fill="#e2e2e2" transform="rotate(30,32,32)"  d=" M 35 1.5 v 14 h -6 v -14 a 3,1.5 0,1,1 6,0" />
	<path fill="#d5d5d5" transform="rotate(60,32,32)"  d=" M 35 1.5 v 14 h -6 v -14 a 3,1.5 0,1,1 6,0" />
	<path fill="#c8c8c8" transform="rotate(90,32,32)"  d=" M 35 1.5 v 14 h -6 v -14 a 3,1.5 0,1,1 6,0" />
	<path fill="#bbbbbb" transform="rotate(120,32,32)" d=" M 35 1.5 v 14 h -6 v -14 a 3,1.5 0,1,1 6,0" />
	<path fill="#aeaeae" transform="rotate(150,32,32)" d=" M 35 1.5 v 14 h -6 v -14 a 3,1.5 0,1,1 6,0" />
	<path fill="#a1a1a1" transform="rotate(180,32,32)" d=" M 35 1.5 v 14 h -6 v -14 a 3,1.5 0,1,1 6,0" />
	<path fill="#949494" transform="rotate(210,32,32)" d=" M 35 1.5 v 14 h -6 v -14 a 3,1.5 0,1,1 6,0" />
	<path fill="#878787" transform="rotate(240,32,32)" d=" M 35 1.5 v 14 h -6 v -14 a 3,1.5 0,1,1 6,0" />
	<path fill="#7a7a7a" transform="rotate(270,32,32)" d=" M 35 1.5 v 14 h -6 v -14 a 3,1.5 0,1,1 6,0" />
	<path fill="#6d6d6d" transform="rotate(300,32,32)" d=" M 35 1.5 v 14 h -6 v -14 a 3,1.5 0,1,1 6,0" />
	<path fill="#606060" transform="rotate(330,32,32)" d=" M 35 1.5 v 14 h -6 v -14 a 3,1.5 0,1,1 6,0" />
</svg>
